<?xml version="1.0" encoding="UTF-8" standalone="no"?>
<!-- Created with Inkscape (http://www.inkscape.org/) -->

<svg
   xmlns:dc="http://purl.org/dc/elements/1.1/"
   xmlns:cc="http://creativecommons.org/ns#"
   xmlns:rdf="http://www.w3.org/1999/02/22-rdf-syntax-ns#"
   xmlns:svg="http://www.w3.org/2000/svg"
   xmlns="http://www.w3.org/2000/svg"
   xmlns:sodipodi="http://sodipodi.sourceforge.net/DTD/sodipodi-0.dtd"
   xmlns:inkscape="http://www.inkscape.org/namespaces/inkscape"
   version="1.1"
   id="svg2"
   xml:space="preserve"
   width="1000"
   height="250"
   viewBox="0 0 999.99998 250"
   sodipodi:docname="koenigsegg_vert_black.svg"
   inkscape:version="0.92.4 (5da689c313, 2019-01-14)"><metadata
     id="metadata8"><rdf:RDF><cc:Work
         rdf:about=""><dc:format>image/svg+xml</dc:format><dc:type
           rdf:resource="http://purl.org/dc/dcmitype/StillImage" /><dc:title></dc:title></cc:Work></rdf:RDF></metadata><defs
     id="defs6"><clipPath
       clipPathUnits="userSpaceOnUse"
       id="clipPath18"><path
         d="M 0,595.276 H 841.89 V 0 H 0 Z"
         id="path16"
         inkscape:connector-curvature="0" /></clipPath><clipPath
       clipPathUnits="userSpaceOnUse"
       id="clipPath34"><path
         d="M 0,595.276 H 841.89 V 0 H 0 Z"
         id="path32"
         inkscape:connector-curvature="0" /></clipPath></defs><sodipodi:namedview
     pagecolor="#ffffff"
     bordercolor="#666666"
     borderopacity="1"
     objecttolerance="10"
     gridtolerance="10"
     guidetolerance="10"
     inkscape:pageopacity="0"
     inkscape:pageshadow="2"
     inkscape:window-width="1028"
     inkscape:window-height="1072"
     id="namedview4"
     showgrid="false"
     inkscape:zoom="0.64"
     inkscape:cx="456.56355"
     inkscape:cy="457.4138"
     inkscape:window-x="0"
     inkscape:window-y="0"
     inkscape:window-maximized="1"
     inkscape:current-layer="g10" /><g
     id="g10"
     inkscape:groupmode="layer"
     inkscape:label="Koenigsegg_Logo_New"
     transform="matrix(1.3333333,0,0,-1.3333333,0,249.99996)"><g
       id="g12"><g
         id="g14"
         clip-path="url(#clipPath18)"><path
           d="M 841.89,595.275 H 0 v 595.276 h 841.89 z"
           style="fill:#FFFFFF;fill-opacity:1;fill-rule:nonzero;stroke:none"
           id="path20"
           inkscape:connector-curvature="0" /></g></g><g
       id="g24"
       transform="translate(183.89779,90.39924)"><path
         d="M 0,0 12.35,-23.971 H 31.833 L 16.036,5.568 42.53,31.846 H 24.271 L 1.167,9.116 3.898,31.847 H -13.355 L -20,-23.971 h 17.096 z"
         style="fill:#FFFFFF;fill-opacity:1;fill-rule:nonzero;stroke:none"
         id="path26"
         inkscape:connector-curvature="0" /></g><g
       id="g28"
       transform="translate(-62.625002,-203.90626)"><g
         id="g30"
         clip-path="url(#clipPath34)"><g
           id="g36"
           transform="translate(305.2342,302.1913)"><path
             d="m 0,0 c 0.127,1.542 0.807,6.136 6.653,6.136 h 6.205 c 0,0 -0.569,-5.487 -0.914,-7.71 L 10.027,-17.095 C 9.719,-19.347 9.08,-23.678 3.123,-23.678 h -6.291 z m -9.639,-31.856 h 23.241 c 8.134,0 12.167,3.163 13.078,10.254 l 3.013,24.591 c 0.426,3.511 -0.033,5.969 -1.402,7.515 -1.484,1.675 -4.205,2.662 -8.562,2.662 H -3.622 c -5.829,0 -12.143,-0.991 -13.285,-10.355 l -3.01,-24.595 c -0.462,-3.514 0.003,-6.004 1.421,-7.62 1.552,-1.769 4.283,-2.452 8.857,-2.452"
             style="fill:#FFFFFF;fill-opacity:1;fill-rule:nonzero;stroke:none"
             id="path38"
             inkscape:connector-curvature="0" /></g><g
           id="g40"
           transform="translate(361.2694,302.1913)"><path
             d="m 0,0 c 0.454,3.724 3.063,6.136 6.648,6.136 1.841,0 6.317,10e-4 6.317,10e-4 L 11.562,-5.507 -0.735,-5.624 Z m -9.751,-31.856 h 23.659 c 8.056,0 11.872,3.035 12.856,10.149 l 0.315,2.502 -17.16,-0.001 c -1.041,-3.837 -4.589,-4.471 -6.606,-4.471 -1.885,0 -6.161,0.001 -6.161,0.001 l 1.209,10.393 h 29.425 l 1.993,16.375 c 0.409,3.382 -0.072,5.793 -1.469,7.37 -1.573,1.774 -4.402,2.704 -8.904,2.704 H -3.109 c -8.957,0 -12.798,-3.053 -13.702,-10.357 l -3.112,-24.596 c -0.428,-3.449 0.055,-5.907 1.475,-7.515 1.561,-1.766 4.243,-2.554 8.697,-2.554"
             style="fill:#FFFFFF;fill-opacity:1;fill-rule:nonzero;stroke:none"
             id="path42"
             inkscape:connector-curvature="0" /></g><g
           id="g44"
           transform="translate(612.1469,302.1913)"><path
             d="m 0,0 c 0.454,3.724 3.064,6.136 6.648,6.136 1.841,0 6.318,10e-4 6.318,10e-4 L 11.563,-5.507 -0.734,-5.624 Z m -9.751,-31.856 h 23.659 c 8.056,0 11.873,3.035 12.856,10.149 l 0.316,2.502 -17.161,-0.001 c -1.04,-3.837 -4.589,-4.471 -6.606,-4.471 -1.884,0 -6.161,0.001 -6.161,0.001 l 1.209,10.393 H 27.786 L 29.78,3.092 c 0.408,3.382 -0.072,5.793 -1.47,7.37 -1.573,1.774 -4.402,2.704 -8.904,2.704 H -3.108 c -8.958,0 -12.799,-3.053 -13.703,-10.357 l -3.111,-24.596 c -0.428,-3.449 0.054,-5.907 1.475,-7.515 1.56,-1.766 4.242,-2.554 8.696,-2.554"
             style="fill:#FFFFFF;fill-opacity:1;fill-rule:nonzero;stroke:none"
             id="path46"
             inkscape:connector-curvature="0" /></g><g
           id="g48"
           transform="translate(417.1913,299.9921)"><path
             d="m 0,0 c 0,0 3.895,3.206 6.482,5.079 2.586,1.874 6.667,2.415 6.667,2.415 0,0 -0.746,-5.719 -0.884,-7.059 L 8.61,-29.657 H 25.816 L 29.99,5.187 c 0.448,3.534 -0.023,6.03 -1.436,7.633 -1.468,1.666 -4.044,2.545 -8.107,2.545 H 16.49 c -5.309,0 -9.106,-2.657 -9.106,-2.657 L 0.932,7.584 1.868,15.365 h -17.199 l -5.525,-45.022 h 17.203 z"
             style="fill:#FFFFFF;fill-opacity:1;fill-rule:nonzero;stroke:none"
             id="path50"
             inkscape:connector-curvature="0" /></g><g
           id="g52"
           transform="translate(452.3636,270.3348)"><path
             d="m 0,0 h 17.194 l 5.378,45.022 H 5.437 Z"
             style="fill:#FFFFFF;fill-opacity:1;fill-rule:nonzero;stroke:none"
             id="path54"
             inkscape:connector-curvature="0" /></g><g
           id="g56"
           transform="translate(511.8206,300.9042)"><path
             d="m 0,0 -1.874,-15.092 c 0,0 -3.392,-7.297 -11.14,-7.297 -1.826,0 -1.912,10e-4 -1.912,10e-4 l 2.939,23.675 c 0.364,3.169 2.266,6.125 6.685,6.125 C -3.487,7.44 0.794,7.411 0.794,7.411 0.794,7.411 0.154,1.337 0,0 m -16.612,14.453 c -7.601,0 -11.345,-3.159 -12.14,-10.245 l -3.015,-24.187 c -0.423,-3.44 0.058,-5.89 1.473,-7.491 1.475,-1.667 4.081,-3.099 7.971,-3.099 h 6.443 c 8.815,0 13.131,8.18 13.131,8.18 l -1.938,-14.897 h -28.984 l -0.851,-8.331 33.367,-0.001 c 6.36,0 12.997,1.155 14.01,9.73 l 6.023,50.341 z"
             style="fill:#FFFFFF;fill-opacity:1;fill-rule:nonzero;stroke:none"
             id="path58"
             inkscape:connector-curvature="0" /></g><g
           id="g60"
           transform="translate(679.8685,300.9042)"><path
             d="m 0,0 -1.874,-15.092 c 0,0 -3.392,-7.297 -11.141,-7.297 -1.825,0 -1.911,10e-4 -1.911,10e-4 l 2.938,23.675 c 0.365,3.169 2.267,6.125 6.686,6.125 C -3.488,7.44 0.794,7.411 0.794,7.411 0.794,7.411 0.153,1.337 0,0 m -16.613,14.453 c -7.6,0 -11.344,-3.159 -12.139,-10.245 l -3.015,-24.187 c -0.423,-3.44 0.058,-5.89 1.473,-7.491 1.475,-1.667 4.081,-3.099 7.971,-3.099 h 6.443 c 8.815,0 13.131,8.18 13.131,8.18 l -1.939,-14.897 h -28.984 l -0.85,-8.331 33.367,-0.001 c 6.36,0 12.997,1.155 14.01,9.73 l 6.023,50.341 z"
             style="fill:#FFFFFF;fill-opacity:1;fill-rule:nonzero;stroke:none"
             id="path62"
             inkscape:connector-curvature="0" /></g><g
           id="g64"
           transform="translate(735.6947,300.9042)"><path
             d="m 0,0 -1.874,-15.092 c 0,0 -3.392,-7.297 -11.14,-7.297 -1.826,0 -1.912,10e-4 -1.912,10e-4 l 2.939,23.675 c 0.365,3.169 2.267,6.125 6.685,6.125 C -3.487,7.44 0.795,7.411 0.795,7.411 0.795,7.411 0.154,1.337 0,0 m -16.612,14.453 c -7.601,0 -11.345,-3.159 -12.14,-10.245 l -3.015,-24.187 c -0.423,-3.44 0.058,-5.89 1.473,-7.491 1.475,-1.667 4.081,-3.099 7.971,-3.099 h 6.443 c 8.815,0 13.132,8.18 13.132,8.18 l -1.939,-14.897 h -28.984 l -0.851,-8.331 33.367,-0.001 c 6.36,0 12.998,1.155 14.01,9.73 l 6.023,50.341 z"
             style="fill:#FFFFFF;fill-opacity:1;fill-rule:nonzero;stroke:none"
             id="path66"
             inkscape:connector-curvature="0" /></g><g
           id="g68"
           transform="translate(546.8695,270.3348)"><path
             d="m 0,0 h 22.937 c 8.239,0 12.459,3.496 13.283,10.562 l 0.722,6.016 c 0.421,3.199 -0.012,5.503 -1.325,7.05 -2.159,2.546 -6.505,2.909 -10.339,3.036 l -16.864,10e-4 0.562,5.077 c 0.597,4.612 3.984,6.252 6.955,6.252 0.921,0 5.759,-10e-4 5.759,-10e-4 l -0.519,-6.137 h 17.282 l 0.468,3.214 c 0.395,3.444 -0.122,5.914 -1.587,7.533 -1.524,1.684 -4.122,2.48 -7.946,2.419 H 4.566 c -7.504,0 -11.249,-3.163 -12.138,-10.254 L -8.404,28.64 c -0.457,-3.81 0.021,-6.467 1.461,-8.113 2.149,-2.456 6.437,-2.515 10.587,-2.572 h 16.305 l -0.33,-2.585 c -0.14,-1.722 -1.103,-7.189 -7.578,-7.189 -1.749,0 -5.833,0.001 -5.833,0.001 l 0.527,4.469 h -17.492 l -0.24,-2.362 C -11.453,6.817 -10.991,4.357 -9.586,2.756 -7.522,0.403 -3.556,0 0,0"
             style="fill:#FFFFFF;fill-opacity:1;fill-rule:nonzero;stroke:none"
             id="path70"
             inkscape:connector-curvature="0" /></g><path
           d="m 1683.774,0 h -841.89 v 595.275 h 841.89 z"
           style="fill:#FFFFFF;fill-opacity:1;fill-rule:nonzero;stroke:none"
           id="path72"
           inkscape:connector-curvature="0" /><path
           d="M 1683.78,595.275 H 841.89 v 595.276 h 841.89 z"
           style="fill:#ffffff;fill-opacity:1;fill-rule:nonzero;stroke:none"
           id="path74"
           inkscape:connector-curvature="0" /><path
           d="M 841.89,-595.276 H 0 V -0.001 h 841.89 z"
           style="fill:#FFFFFF;fill-opacity:1;fill-rule:nonzero;stroke:none"
           id="path76"
           inkscape:connector-curvature="0" /><path
           d="M 1683.78,-595.276 H 841.89 V -0.001 h 841.89 z"
           style="fill:#ffffff;fill-opacity:1;fill-rule:nonzero;stroke:none"
           id="path78"
           inkscape:connector-curvature="0" /><g
           id="g80"
           transform="translate(137.7391,348.3798)"><path
             d="m 0,0 c -5.443,0 -16.021,-2.959 -31.437,-8.794 -8.865,-3.354 -16.929,-6.778 -19.984,-8.095 l -1.622,-0.699 0.203,-1.754 c 0.767,-6.595 2.579,-19.676 6.106,-33.184 5.299,-20.28 17.444,-49.329 45.21,-72.56 l 1.523,-1.274 1.523,1.274 c 27.766,23.231 39.911,52.28 45.21,72.56 3.528,13.51 5.34,26.589 6.106,33.184 l 0.204,1.754 -1.623,0.699 C 48.366,-15.573 40.305,-12.15 31.437,-8.794 16.02,-2.959 5.443,0 0,0 m 0,-2.373 c 3.544,0 11.729,-1.499 30.596,-8.641 8.721,-3.3 16.593,-6.636 19.885,-8.054 -0.744,-6.402 -2.54,-19.433 -6.045,-32.859 -5.242,-20.058 -17.201,-48.551 -44.437,-71.339 -27.235,22.787 -39.195,51.281 -44.437,71.339 -3.504,13.425 -5.3,26.456 -6.044,32.859 3.292,1.418 11.164,4.754 19.885,8.054 18.868,7.142 27.053,8.641 30.597,8.641"
             style="fill:#FFFFFF;fill-opacity:1;fill-rule:nonzero;stroke:none"
             id="path82"
             inkscape:connector-curvature="0" /></g><g
           id="g84"
           transform="translate(137.7396,331.0819)"><path
             d="M 0,0 21.133,6.518 C 12.161,9.631 4.132,11.895 0,11.895 c -4.131,0 -12.161,-2.264 -21.133,-5.377 z"
             style="fill:#FFFFFF;fill-opacity:1;fill-rule:nonzero;stroke:none"
             id="path86"
             inkscape:connector-curvature="0" /></g><g
           id="g88"
           transform="translate(137.7396,314.1317)"><path
             d="M 0,0 29.945,8.444 45.852,3.959 c 0.588,3.612 1.03,6.804 1.35,9.342 -0.033,0.014 -0.067,0.029 -0.1,0.043 L 29.945,8.506 0,16.95 -30.056,8.476 Z"
             style="fill:#FFFFFF;fill-opacity:1;fill-rule:nonzero;stroke:none"
             id="path90"
             inkscape:connector-curvature="0" /></g><g
           id="g92"
           transform="translate(90.5419,327.3944)"><path
             d="m 0,0 c 0.316,-2.508 0.752,-5.648 1.328,-9.2 l 15.65,4.413 z"
             style="fill:#FFFFFF;fill-opacity:1;fill-rule:nonzero;stroke:none"
             id="path94"
             inkscape:connector-curvature="0" /></g><g
           id="g96"
           transform="translate(93.1546,310.9403)"><path
             d="m 0,0 c 0.607,-3.167 1.313,-6.504 2.129,-9.911 l 14.989,4.623 27.467,-8.471 27.466,8.471 14.99,-4.622 c 0.815,3.406 1.521,6.743 2.128,9.91 L 72.051,-5.279 44.585,3.191 17.118,-5.279 Z"
             style="fill:#FFFFFF;fill-opacity:1;fill-rule:nonzero;stroke:none"
             id="path98"
             inkscape:connector-curvature="0" /></g><g
           id="g100"
           transform="translate(97.0863,294.1083)"><path
             d="m 0,0 c 0.881,-3.088 1.922,-6.348 3.151,-9.731 l 12.661,4.308 24.841,-8.454 24.879,8.467 12.631,-4.299 c 1.221,3.366 2.258,6.607 3.135,9.681 L 65.532,-5.394 40.653,3.073 15.812,-5.381 Z"
             style="fill:#FFFFFF;fill-opacity:1;fill-rule:nonzero;stroke:none"
             id="path102"
             inkscape:connector-curvature="0" /></g><g
           id="g104"
           transform="translate(137.7396,263.2811)"><path
             d="M 0,0 20.609,8.475 0,16.95 -20.609,8.475 Z"
             style="fill:#FFFFFF;fill-opacity:1;fill-rule:nonzero;stroke:none"
             id="path106"
             inkscape:connector-curvature="0" /></g><g
           id="g108"
           transform="translate(107.4891,267.7909)"><path
             d="M 0,0 9.641,3.965 -4.602,9.822 C -3.248,6.613 -1.719,3.327 0,0"
             style="fill:#FFFFFF;fill-opacity:1;fill-rule:nonzero;stroke:none"
             id="path110"
             inkscape:connector-curvature="0" /></g><g
           id="g112"
           transform="translate(172.5907,277.6122)"><path
             d="M 0,0 -14.242,-5.856 -4.601,-9.82 C -2.883,-6.494 -1.354,-3.208 0,0"
             style="fill:#FFFFFF;fill-opacity:1;fill-rule:nonzero;stroke:none"
             id="path114"
             inkscape:connector-curvature="0" /></g><g
           id="g116"
           transform="translate(137.7396,246.3309)"><path
             d="M 0,0 15.401,8.475 0,16.95 -15.401,8.475 Z"
             style="fill:#FFFFFF;fill-opacity:1;fill-rule:nonzero;stroke:none"
             id="path118"
             inkscape:connector-curvature="0" /></g><g
           id="g120"
           transform="translate(162.8558,258.7245)"><path
             d="m 0,0 -9.715,-3.919 5.419,-2.598 C -2.926,-4.543 -1.22,-1.974 0,0"
             style="fill:#FFFFFF;fill-opacity:1;fill-rule:nonzero;stroke:none"
             id="path122"
             inkscape:connector-curvature="0" /></g><g
           id="g124"
           transform="translate(112.6229,258.7245)"><path
             d="M 0,0 9.715,-3.919 4.296,-6.517 C 2.925,-4.543 1.22,-1.974 0,0"
             style="fill:#FFFFFF;fill-opacity:1;fill-rule:nonzero;stroke:none"
             id="path126"
             inkscape:connector-curvature="0" /></g><g
           id="g128"
           transform="translate(136.9129,229.8338)"><path
             d="m 0,0 0.827,-0.453 0.825,0.452 c 3.781,3.35 7.244,6.809 10.412,10.336 L 0.827,16.497 -10.412,10.335 C -7.244,6.808 -3.78,3.349 0,0"
             style="fill:#FFFFFF;fill-opacity:1;fill-rule:nonzero;stroke:none"
             id="path130"
             inkscape:connector-curvature="0" /></g><g
           id="g132"
           transform="translate(127.4437,359.0565)"><path
             d="m 0,0 -1.713,-1.713 c 1.509,-1.51 3.493,-2.265 5.476,-2.265 1.918,0 3.831,0.713 5.32,2.124 v -4.481 h 2.424 v 4.481 c 1.49,-1.411 3.404,-2.124 5.321,-2.124 1.984,0 3.966,0.755 5.476,2.265 L 20.591,0 c -2.075,-2.073 -5.45,-2.074 -7.526,0 -2.074,2.075 -2.074,5.451 0,7.525 2.076,2.076 5.451,2.075 7.526,0 l 1.713,1.714 c -2.97,2.97 -7.767,3.012 -10.797,0.14 v 4.482 H 9.083 V 9.38 C 6.054,12.251 1.256,12.209 -1.713,9.239 L 0,7.525 C 2.075,9.6 5.451,9.6 7.525,7.525 9.6,5.451 9.6,2.075 7.525,0 5.451,-2.073 2.076,-2.074 0,0"
             style="fill:#FFFFFF;fill-opacity:1;fill-rule:nonzero;stroke:none"
             id="path134"
             inkscape:connector-curvature="0" /></g><g
           id="g136"
           transform="translate(78.3353,344.9052)"><path
             d="m 0,0 c -0.014,-0.291 -0.03,-0.771 -0.03,-1.457 0,-0.208 0.084,-21.146 7.36,-49.018 5.775,-22.101 19.191,-53.588 50.317,-78.082 0.01,-0.006 0.827,-0.65 1.756,-1.302 0.929,0.652 1.746,1.296 1.755,1.302 31.126,24.494 44.543,55.981 50.318,78.082 7.276,27.872 7.36,48.81 7.36,49.018 0,0.686 -0.016,1.166 -0.03,1.457 -1.131,0.989 -5.401,4.718 -7.15,6.161 C 87.696,25.943 60.541,35.93 60.277,36.022 l -0.874,0.327 -0.85,-0.319 C 58.265,35.93 31.11,25.943 7.15,6.161 5.401,4.718 1.131,0.989 0,0 m 59.676,-131.83 h -0.544 l -0.227,0.152 c -1.169,0.787 -2.311,1.686 -2.36,1.724 -31.512,24.797 -45.094,56.664 -50.937,79.029 -7.333,28.092 -7.418,49.258 -7.418,49.468 0,1.328 0.057,1.941 0.059,1.967 l 0.033,0.351 0.267,0.234 c 0.054,0.048 5.433,4.759 7.468,6.439 24.309,20.07 51.689,30.091 51.945,30.176 l 1.441,0.539 1.473,-0.551 c 0.225,-0.073 27.604,-10.094 51.913,-30.164 2.035,-1.68 7.415,-6.391 7.468,-6.439 l 0.267,-0.234 0.033,-0.351 c 0.002,-0.026 0.059,-0.639 0.059,-1.967 0,-0.21 -0.085,-21.376 -7.418,-49.467 -5.843,-22.366 -19.425,-54.233 -50.938,-79.031 -0.048,-0.037 -1.19,-0.936 -2.359,-1.723 z"
             style="fill:#FFFFFF;fill-opacity:1;fill-rule:nonzero;stroke:none"
             id="path138"
             inkscape:connector-curvature="0" /></g></g></g></g></svg>